<svg xmlns="http://www.w3.org/2000/svg" width="72" height="65" viewBox="0 0 72 65">
  <metadata><?xpacket begin="﻿" id="W5M0MpCehiHzreSzNTczkc9d"?>
<x:xmpmeta xmlns:x="adobe:ns:meta/" x:xmptk="Adobe XMP Core 5.6-c142 79.160924, 2017/07/13-01:06:39        ">
   <rdf:RDF xmlns:rdf="http://www.w3.org/1999/02/22-rdf-syntax-ns#">
      <rdf:Description rdf:about=""/>
   </rdf:RDF>
</x:xmpmeta>
                                                                                                    
                                                                                                    
                                                                                                    
                                                                                                    
                                                                                                    
                                                                                                    
                                                                                                    
                                                                                                    
                                                                                                    
                                                                                                    
                                                                                                    
                                                                                                    
                                                                                                    
                                                                                                    
                                                                                                    
                                                                                                    
                                                                                                    
                                                                                                    
                                                                                                    
                                                                                                    
                           
<?xpacket end="w"?></metadata>
<defs>
    <style>
      .cls-1 {
        fill: #fff;
        fill-rule: evenodd;
      }
    </style>
  </defs>
  <path class="cls-1" d="M765.648,6881H748.521a4.811,4.811,0,0,0-4.8,4.81v2.21a1.407,1.407,0,0,0,2.813,0v-2.21a1.988,1.988,0,0,1,1.985-1.99h17.127a1.989,1.989,0,0,1,1.986,1.99v2.21a1.406,1.406,0,0,0,2.812,0v-2.21A4.811,4.811,0,0,0,765.648,6881Zm20.486,11.38H727.866a6.883,6.883,0,0,0-6.866,6.88v12.51a1.4,1.4,0,0,0,1.008,1.35l0.857,0.26v29.51a3.107,3.107,0,0,0,3.1,3.11h62.065a3.107,3.107,0,0,0,3.1-3.11v-29.31l0.849-.24a1.416,1.416,0,0,0,1.016-1.35v-12.73A6.883,6.883,0,0,0,786.134,6892.38Zm-52.585,50.8h-7.582a0.29,0.29,0,0,1-.289-0.29v-7.59h4.044a3.834,3.834,0,0,1,3.827,3.83v4.05Zm54.773-.29a0.29,0.29,0,0,1-.29.29h-7.581v-4.05a3.834,3.834,0,0,1,3.827-3.83h4.044v7.59Zm0-10.41h-4.044a6.65,6.65,0,0,0-6.639,6.65v4.05H736.361v-4.05a6.65,6.65,0,0,0-6.639-6.65h-4.044v-18.27l24.828,7.33v4.53a1.408,1.408,0,0,0,1.407,1.41h10.174a1.408,1.408,0,0,0,1.407-1.41v-4.49l24.828-7.18v18.08h0Zm-35-7.82v-6.86h7.362v6.86h-7.362Zm36.868-13.73-26.694,7.72v-2.26a1.407,1.407,0,0,0-1.406-1.41H751.913a1.408,1.408,0,0,0-1.407,1.41v2.22l-26.694-7.89v-11.46a4.061,4.061,0,0,1,4.054-4.06h5.683v4.88a1.406,1.406,0,1,0,2.812,0v-4.88H777.13v4.88a1.406,1.406,0,1,0,2.812,0v-4.88h6.192a4.06,4.06,0,0,1,4.053,4.06v11.67h0Zm-11.65-6.83a1.41,1.41,0,1,1-1.407,1.41A1.414,1.414,0,0,1,778.537,6904.1Zm-43.583,0a1.41,1.41,0,1,1-1.406,1.41A1.413,1.413,0,0,1,734.954,6904.1Z" transform="translate(-721 -6881)"/>
</svg>
