<?xml version="1.0" encoding="iso-8859-1"?>
<!-- Generator: Adobe Illustrator 19.0.0, SVG Export Plug-In . SVG Version: 6.00 Build 0)  -->
<svg version="1.1" id="Capa_1" xmlns="http://www.w3.org/2000/svg" xmlns:xlink="http://www.w3.org/1999/xlink" x="0px" y="0px"
	 viewBox="0 0 512 512" style="enable-background:new 0 0 512 512;" xml:space="preserve">
<g>
	<g>
		<path d="M334.037,405.877c-15.646-5.192-31.012-11.191-46.037-17.973v-0.501c26.018-12.373,42.615-38.592,42.667-67.403v-32
			c0-41.237-33.429-74.667-74.667-74.667S181.333,246.763,181.333,288v32c0.051,28.811,16.648,55.03,42.667,67.403v0.501
			c-15.025,6.783-30.391,12.782-46.037,17.973c-38.848,12.949-39.296,40.939-39.296,42.123v64H160v-63.712
			c0-0.576,1.067-14.293,24.704-22.112c18.697-6.115,36.979-13.433,54.731-21.909c3.634-1.816,5.921-5.538,5.899-9.6v-14.389
			c0.002-4.519-2.844-8.549-7.104-10.059c-21.278-7.54-35.515-27.645-35.563-50.219v-32c0-29.455,23.878-53.333,53.333-53.333
			s53.333,23.878,53.333,53.333v32c-0.047,22.574-14.285,42.679-35.563,50.219c-4.26,1.509-7.106,5.539-7.104,10.059v14.389
			c-0.022,4.062,2.265,7.784,5.899,9.6c17.753,8.458,36.035,15.759,54.731,21.856C350.933,433.995,352,447.712,352,448v64h21.333
			v-64C373.333,446.816,372.885,418.827,334.037,405.877z"/>
	</g>
</g>
<g>
	<g>
		<path d="M149.31,213.31c-41.237,0.013-74.656,33.453-74.643,74.69v32c0.051,28.811,16.648,55.03,42.667,67.403v0.501
			c-15.025,6.783-30.391,12.782-46.037,17.973C32.448,418.827,32,446.816,32,448v64h21.333v-63.712
			c0-0.576,1.067-14.293,24.704-22.112c18.697-6.115,36.979-13.433,54.731-21.909c3.634-1.816,5.921-5.538,5.899-9.6v-14.389
			c0.002-4.519-2.844-8.549-7.104-10.059C110.285,362.679,96.047,342.574,96,320v-32c-0.01-8.905,2.211-17.672,6.458-25.499
			c14.05-25.888,46.427-35.485,72.315-21.435l10.187-18.709C174.017,216.416,161.762,213.306,149.31,213.31z"/>
	</g>
</g>
<g>
	<g>
		<rect x="245.333" y="458.667" width="21.333" height="21.333"/>
	</g>
</g>
<g>
	<g>
		<rect x="288" y="458.667" width="21.333" height="21.333"/>
	</g>
</g>
<g>
	<g>
		<rect x="202.667" y="458.667" width="21.333" height="21.333"/>
	</g>
</g>
<g>
	<g>
		<path d="M480,512l0-64c0-1.184-0.448-29.173-39.296-42.123c-15.646-5.192-31.012-11.191-46.037-17.973v-0.501
			c26.018-12.373,42.615-38.592,42.667-67.403v-30.251c0.31-13.049-2.806-25.952-9.038-37.422
			c-19.688-36.234-65.021-49.648-101.255-29.96l10.187,18.741c11.582-6.264,25.06-8.06,37.877-5.045
			c24.426,6.255,41.353,28.475,40.896,53.685V320c-0.047,22.574-14.285,42.679-35.563,50.219c-4.26,1.509-7.106,5.539-7.104,10.059
			v14.389c-0.022,4.062,2.265,7.784,5.899,9.6c17.753,8.458,36.035,15.759,54.731,21.856c23.637,7.872,24.704,21.589,24.704,21.877
			v64H480z"/>
	</g>
</g>
<g>
	<g>
		<path d="M458.667,0H53.333C23.893,0.035,0.035,23.893,0,53.333V224h21.333V53.333c0-17.673,14.327-32,32-32h405.333
			c17.673,0,32,14.327,32,32V224H512V53.333C511.965,23.893,488.107,0.035,458.667,0z"/>
	</g>
</g>
<g>
	<g>
		<path d="M266.667,53.333h-192C68.776,53.333,64,58.109,64,64v42.667c0,5.891,4.776,10.667,10.667,10.667h192
			c5.891,0,10.667-4.776,10.667-10.667V64C277.333,58.109,272.558,53.333,266.667,53.333z M256,96H85.333V74.667H256V96z"/>
	</g>
</g>
<g>
	<g>
		<rect x="298.667" y="53.333" width="21.333" height="21.333"/>
	</g>
</g>
<g>
	<g>
		<rect x="341.333" y="53.333" width="21.333" height="21.333"/>
	</g>
</g>
<g>
	<g>
		<rect x="298.667" y="96" width="149.333" height="21.333"/>
	</g>
</g>
<g>
	<g>
		<path d="M170.795,149.333c-0.649,0.069-1.304,0.073-1.954,0.012c-5.39-0.507-9.348-5.288-8.841-10.678h-21.333
			c-0.018,0.606-0.018,1.213,0,1.819c0.502,17.171,14.829,30.684,32,30.181H256v-21.333H170.795z"/>
	</g>
</g>
<g>
	<g>
		<path d="M373.333,138.667H352c0.062,0.634,0.062,1.273,0,1.907c-0.526,5.365-5.302,9.286-10.667,8.76H256
			c-5.891,0-10.667,4.776-10.667,10.667v32h21.333v-21.333h74.667c0.606,0.018,1.213,0.018,1.819,0
			C360.323,170.164,373.836,155.838,373.333,138.667z"/>
	</g>
</g>
<g>
</g>
<g>
</g>
<g>
</g>
<g>
</g>
<g>
</g>
<g>
</g>
<g>
</g>
<g>
</g>
<g>
</g>
<g>
</g>
<g>
</g>
<g>
</g>
<g>
</g>
<g>
</g>
<g>
</g>
</svg>
